<?xml version="1.0" encoding="UTF-8"?>
<svg version="1.1" xmlns="http://www.w3.org/2000/svg" width="192" height="192">
<path d="M0 0 C1.71795273 -0.01073296 1.71795273 -0.01073296 3.47061157 -0.02168274 C4.72830856 -0.02437164 5.98600555 -0.02706055 7.28181458 -0.02983093 C8.61901526 -0.03609714 9.95621421 -0.04274409 11.29341125 -0.04974365 C15.68642467 -0.07077123 20.07943837 -0.08114618 24.4724884 -0.09111023 C25.98635183 -0.09515855 27.50021508 -0.0992755 29.01407814 -0.10346031 C36.12824391 -0.1225107 43.24239932 -0.13674092 50.35658568 -0.14507228 C58.56000099 -0.15483851 66.76314602 -0.1811424 74.96646613 -0.22157317 C81.31224899 -0.25177191 87.65795454 -0.26654479 94.00380784 -0.26985329 C97.79133844 -0.2721999 101.57858025 -0.28110888 105.36603355 -0.30631447 C108.93250946 -0.32966576 112.49850793 -0.33380052 116.06504059 -0.32355309 C117.98866374 -0.32282489 119.91226302 -0.3418674 121.83578491 -0.36161804 C129.39093116 -0.3163692 135.13229352 0.28364059 141.00545025 5.48835278 C147.47863694 12.48330849 146.78092059 21.04059319 146.75080872 29.96382141 C146.75606567 31.88210503 146.75606567 31.88210503 146.76142883 33.83914185 C146.77050977 37.33079331 146.76702666 40.82232597 146.76067066 44.31397939 C146.75558943 47.97602602 146.7603079 51.63806281 146.76344299 55.30010986 C146.767076 61.4474723 146.76230054 67.5947866 146.75276184 73.74214172 C146.74187371 80.8409689 146.74540812 87.93968121 146.75641465 95.03850561 C146.76550072 101.14400782 146.7667665 107.24947553 146.76153731 113.35498232 C146.75842549 116.99696926 146.75798667 120.63890226 146.76461029 124.2808857 C146.77147875 128.34063102 146.76194948 132.40017933 146.75080872 136.45991516 C146.75485718 137.66164368 146.75890564 138.86337219 146.76307678 140.10151672 C146.75743713 141.21031693 146.75179749 142.31911713 146.74598694 143.46151733 C146.74485586 144.89970369 146.74485586 144.89970369 146.74370193 146.36694431 C146.22363937 152.11185347 144.0858109 156.67921434 140.49201965 161.14717102 C135.22057547 165.01781185 130.43895095 166.26784775 124.01564026 166.28761292 C122.90262039 166.29332306 121.78960052 166.2990332 120.64285278 166.30491638 C119.42615402 166.30603424 118.20945526 166.3071521 116.95588684 166.30830383 C115.67092819 166.31326874 114.38596954 166.31823364 113.06207275 166.323349 C109.53915805 166.33645072 106.01626239 166.34291375 102.49332714 166.34735966 C100.29015282 166.35029434 98.08698366 166.35439993 95.88381195 166.35886383 C88.98428871 166.3725337 82.08477731 166.38220251 75.18524146 166.38606572 C67.23261544 166.39054356 59.28016154 166.40808075 51.32758784 166.43706632 C45.17286478 166.45871685 39.01819003 166.46877182 32.86342931 166.47010684 C29.19110442 166.47115258 25.51894144 166.47701071 21.8466568 166.49492645 C17.74624267 166.51454205 13.64618654 166.51010478 9.54573059 166.50361633 C8.33712875 166.51283112 7.12852692 166.5220459 5.88330078 166.53153992 C-1.39576705 166.49548346 -7.37212564 165.99755737 -13.53141785 161.75263977 C-14.20044128 161.05074524 -14.20044128 161.05074524 -14.88298035 160.33467102 C-15.34446472 159.87447571 -15.8059491 159.4142804 -16.28141785 158.94013977 C-19.14617139 154.75249049 -19.75865823 150.24704487 -19.77540588 145.27842712 C-19.78393585 144.12900131 -19.79246582 142.9795755 -19.80125427 141.7953186 C-19.79989471 139.92495186 -19.79989471 139.92495186 -19.79850769 138.01679993 C-19.80449761 136.67915473 -19.81130422 135.34151298 -19.81886292 134.00387573 C-19.83648213 130.38188995 -19.84121654 126.75999876 -19.84249449 123.13797426 C-19.84391885 120.87213319 -19.84819382 118.60631595 -19.85348892 116.3404808 C-19.87197503 108.42739594 -19.88016123 100.51437833 -19.87858582 92.60127258 C-19.87738449 85.23828553 -19.89848853 77.87559163 -19.93007314 70.51267874 C-19.95626707 64.17956248 -19.96695182 57.84654181 -19.965675 51.51337183 C-19.96516632 47.73596334 -19.97079719 43.9588156 -19.9920311 40.18146133 C-20.01146663 36.62723432 -20.01150231 33.07351541 -19.99699783 29.51926994 C-19.99392678 27.6028483 -20.01054859 25.68642632 -20.02787781 23.77008057 C-19.97208403 16.08791989 -19.33953493 10.02816501 -13.6915741 4.30732727 C-13.11536316 3.94510071 -12.53915222 3.58287415 -11.94548035 3.20967102 C-11.07729675 2.63926086 -11.07729675 2.63926086 -10.1915741 2.05732727 C-6.7283671 0.18510632 -3.85849011 0.01653666 0 0 Z " fill="#FD031C" transform="translate(32.50798034667969,15.852828979492188)"/>
<path d="M0 0 C1.71795273 -0.01073296 1.71795273 -0.01073296 3.47061157 -0.02168274 C4.72830856 -0.02437164 5.98600555 -0.02706055 7.28181458 -0.02983093 C8.61901526 -0.03609714 9.95621421 -0.04274409 11.29341125 -0.04974365 C15.68642467 -0.07077123 20.07943837 -0.08114618 24.4724884 -0.09111023 C25.98635183 -0.09515855 27.50021508 -0.0992755 29.01407814 -0.10346031 C36.12824391 -0.1225107 43.24239932 -0.13674092 50.35658568 -0.14507228 C58.56000099 -0.15483851 66.76314602 -0.1811424 74.96646613 -0.22157317 C81.31224899 -0.25177191 87.65795454 -0.26654479 94.00380784 -0.26985329 C97.79133844 -0.2721999 101.57858025 -0.28110888 105.36603355 -0.30631447 C108.93250946 -0.32966576 112.49850793 -0.33380052 116.06504059 -0.32355309 C117.98866374 -0.32282489 119.91226302 -0.3418674 121.83578491 -0.36161804 C129.39093116 -0.3163692 135.13229352 0.28364059 141.00545025 5.48835278 C147.47863694 12.48330849 146.78092059 21.04059319 146.75080872 29.96382141 C146.75606567 31.88210503 146.75606567 31.88210503 146.76142883 33.83914185 C146.77050977 37.33079331 146.76702666 40.82232597 146.76067066 44.31397939 C146.75558943 47.97602602 146.7603079 51.63806281 146.76344299 55.30010986 C146.767076 61.4474723 146.76230054 67.5947866 146.75276184 73.74214172 C146.74187371 80.8409689 146.74540812 87.93968121 146.75641465 95.03850561 C146.76550072 101.14400782 146.7667665 107.24947553 146.76153731 113.35498232 C146.75842549 116.99696926 146.75798667 120.63890226 146.76461029 124.2808857 C146.77147875 128.34063102 146.76194948 132.40017933 146.75080872 136.45991516 C146.75485718 137.66164368 146.75890564 138.86337219 146.76307678 140.10151672 C146.75743713 141.21031693 146.75179749 142.31911713 146.74598694 143.46151733 C146.74485586 144.89970369 146.74485586 144.89970369 146.74370193 146.36694431 C146.22363937 152.11185347 144.0858109 156.67921434 140.49201965 161.14717102 C135.22057547 165.01781185 130.43895095 166.26784775 124.01564026 166.28761292 C122.90262039 166.29332306 121.78960052 166.2990332 120.64285278 166.30491638 C119.42615402 166.30603424 118.20945526 166.3071521 116.95588684 166.30830383 C115.67092819 166.31326874 114.38596954 166.31823364 113.06207275 166.323349 C109.53915805 166.33645072 106.01626239 166.34291375 102.49332714 166.34735966 C100.29015282 166.35029434 98.08698366 166.35439993 95.88381195 166.35886383 C88.98428871 166.3725337 82.08477731 166.38220251 75.18524146 166.38606572 C67.23261544 166.39054356 59.28016154 166.40808075 51.32758784 166.43706632 C45.17286478 166.45871685 39.01819003 166.46877182 32.86342931 166.47010684 C29.19110442 166.47115258 25.51894144 166.47701071 21.8466568 166.49492645 C17.74624267 166.51454205 13.64618654 166.51010478 9.54573059 166.50361633 C8.33712875 166.51283112 7.12852692 166.5220459 5.88330078 166.53153992 C-1.39576705 166.49548346 -7.37212564 165.99755737 -13.53141785 161.75263977 C-14.20044128 161.05074524 -14.20044128 161.05074524 -14.88298035 160.33467102 C-15.34446472 159.87447571 -15.8059491 159.4142804 -16.28141785 158.94013977 C-19.14617139 154.75249049 -19.75865823 150.24704487 -19.77540588 145.27842712 C-19.78393585 144.12900131 -19.79246582 142.9795755 -19.80125427 141.7953186 C-19.79989471 139.92495186 -19.79989471 139.92495186 -19.79850769 138.01679993 C-19.80449761 136.67915473 -19.81130422 135.34151298 -19.81886292 134.00387573 C-19.83648213 130.38188995 -19.84121654 126.75999876 -19.84249449 123.13797426 C-19.84391885 120.87213319 -19.84819382 118.60631595 -19.85348892 116.3404808 C-19.87197503 108.42739594 -19.88016123 100.51437833 -19.87858582 92.60127258 C-19.87738449 85.23828553 -19.89848853 77.87559163 -19.93007314 70.51267874 C-19.95626707 64.17956248 -19.96695182 57.84654181 -19.965675 51.51337183 C-19.96516632 47.73596334 -19.97079719 43.9588156 -19.9920311 40.18146133 C-20.01146663 36.62723432 -20.01150231 33.07351541 -19.99699783 29.51926994 C-19.99392678 27.6028483 -20.01054859 25.68642632 -20.02787781 23.77008057 C-19.97208403 16.08791989 -19.33953493 10.02816501 -13.6915741 4.30732727 C-13.11536316 3.94510071 -12.53915222 3.58287415 -11.94548035 3.20967102 C-11.07729675 2.63926086 -11.07729675 2.63926086 -10.1915741 2.05732727 C-6.7283671 0.18510632 -3.85849011 0.01653666 0 0 Z M22.49201965 49.14717102 C20.3211618 52.50213315 19.49201965 54.17867488 19.49201965 58.14717102 C21.09575275 58.79408024 22.70002271 59.43965866 24.30451965 60.08467102 C25.19783997 60.44431946 26.09116028 60.8039679 27.0115509 61.17451477 C28.81911055 61.88330588 30.65009375 62.53319572 32.49201965 63.14717102 C33.01795715 61.90967102 33.01795715 61.90967102 33.55451965 60.64717102 C34.19389465 59.82217102 34.83326965 58.99717102 35.49201965 58.14717102 C39.17951965 57.83467102 39.17951965 57.83467102 42.49201965 58.14717102 C43.11701965 60.52217102 43.11701965 60.52217102 43.49201965 63.14717102 C41.18556912 65.45362156 39.98441958 65.64436237 36.86701965 66.39717102 C29.9307328 68.37466525 24.49402916 72.08908323 20.49201965 78.14717102 C20.49201965 78.80717102 20.49201965 79.46717102 20.49201965 80.14717102 C9.60201965 80.14717102 -1.28798035 80.14717102 -12.50798035 80.14717102 C-12.65348565 92.26430049 -12.65348565 92.26430049 -12.75212097 104.38154602 C-12.78197521 109.3261559 -12.81723683 114.27030148 -12.88517761 119.21455383 C-12.93962852 123.20220389 -12.96942807 127.18935587 -12.98236656 131.17734909 C-12.99158319 132.69640313 -13.00958172 134.21543084 -13.03663063 135.734272 C-13.07309868 137.86745175 -13.07791886 139.99859145 -13.0756073 142.1320343 C-13.08671036 143.34448822 -13.09781342 144.55694214 -13.10925293 145.80613708 C-12.30268227 150.28793125 -10.68432653 151.92846906 -7.50798035 155.14717102 C-4.89996965 156.45117637 -2.98385785 156.28197129 -0.06210327 156.29434204 C1.09457352 156.30149734 2.25125031 156.30865265 3.44297791 156.31602478 C4.71833405 156.31871368 5.99369019 156.32140259 7.30769348 156.32417297 C8.6594663 156.33043695 10.01123739 156.33708369 11.36300659 156.34408569 C15.04078654 156.36150134 18.71855348 156.37204896 22.39636445 156.38029122 C24.69364476 156.38544015 26.99092102 156.39151593 29.28819847 156.39780235 C36.47444286 156.41685595 43.66067697 156.43108677 50.84694177 156.43941432 C59.14491639 156.44918863 67.44262438 156.47551227 75.74050504 156.51591522 C82.15246236 156.54606512 88.5643432 156.56088211 94.97637004 156.56419533 C98.80685446 156.56654711 102.6370541 156.5755236 106.46746254 156.60065651 C110.07167028 156.62392294 113.67540546 156.6281766 117.27966881 156.61789513 C119.23131222 156.61716305 121.18293155 156.63626441 123.13447571 156.65596008 C124.29961197 156.64901627 125.46474823 156.64207245 126.66519165 156.63491821 C127.6756445 156.63730657 128.68609735 156.63969492 129.72716999 156.64215565 C133.26835735 156.00818508 134.91255509 154.60819747 137.49201965 152.14717102 C139.92122824 148.50335814 139.7348753 146.81104657 139.71907043 142.47261047 C139.71936249 141.79917603 139.71965454 141.12574158 139.71995544 140.43190002 C139.71856309 138.20795263 139.70300668 135.98434107 139.68733215 133.76045227 C139.68360168 132.21774478 139.68075487 130.67503492 139.67875671 129.13232422 C139.67112295 125.07328238 139.65147671 121.01438382 139.62934875 116.95539856 C139.60888477 112.81296222 139.59975382 108.67050272 139.5896759 104.5280304 C139.56823053 96.40101154 139.53409774 88.27410911 139.49201965 80.14717102 C135.39860466 80.12247527 131.30521844 80.10431309 127.21174622 80.09223938 C125.81883489 80.08720672 124.42592885 80.08038004 123.03303528 80.07173157 C121.03240719 80.0596195 119.03174077 80.0544669 117.03108215 80.04951477 C115.82661438 80.04427795 114.62214661 80.03904114 113.38117981 80.03364563 C110.55065196 79.94629211 110.55065196 79.94629211 108.49201965 81.14717102 C108.97541809 80.31830383 109.45881653 79.48943665 109.9568634 78.63545227 C112.88347035 71.98542682 112.95490553 63.16456594 110.46076965 56.31513977 C106.93374539 50.56413076 101.24911955 45.69588477 94.76496887 43.58491516 C91.80298433 43.01447066 88.99282872 43.03580371 85.97639465 43.04951477 C84.10080872 43.05434875 84.10080872 43.05434875 82.18733215 43.0592804 C80.88537903 43.0676593 79.5834259 43.07603821 78.24201965 43.08467102 C76.92459778 43.08918274 75.6071759 43.09369446 74.24983215 43.0983429 C70.99718224 43.11012786 67.74462381 43.12658091 64.49201965 43.14717102 C64.4666842 50.7643513 64.4491589 58.38152074 64.43708801 65.99873352 C64.43205633 68.59053453 64.42523039 71.18233269 64.4165802 73.77412415 C64.40446375 77.49743857 64.3987797 81.22071549 64.3943634 84.94404602 C64.38920212 86.10458496 64.38404083 87.2651239 64.37872314 88.46083069 C64.37860985 90.08205841 64.37860985 90.08205841 64.37849426 91.73603821 C64.37627365 92.68645996 64.37405304 93.63688171 64.37176514 94.61610413 C64.48240976 96.94490589 64.83119829 98.91924378 65.49201965 101.14717102 C63.51201965 101.14717102 61.53201965 101.14717102 59.49201965 101.14717102 C59.49201965 101.80717102 59.49201965 102.46717102 59.49201965 103.14717102 C61.47201965 103.80717102 63.45201965 104.46717102 65.49201965 105.14717102 C65.98701965 108.11717102 65.98701965 108.11717102 66.49201965 111.14717102 C58.86701965 112.14717102 58.86701965 112.14717102 55.49201965 112.14717102 C55.49201965 110.82717102 55.49201965 109.50717102 55.49201965 108.14717102 C57.80201965 108.47717102 60.11201965 108.80717102 62.49201965 109.14717102 C62.49201965 108.48717102 62.49201965 107.82717102 62.49201965 107.14717102 C60.51201965 106.15717102 58.53201965 105.16717102 56.49201965 104.14717102 C56.49201965 102.16717102 56.49201965 100.18717102 56.49201965 98.14717102 C57.48201965 97.81717102 58.47201965 97.48717102 59.49201965 97.14717102 C59.49201965 90.87717102 59.49201965 84.60717102 59.49201965 78.14717102 C56.68701965 78.12654602 53.88201965 78.10592102 50.99201965 78.08467102 C50.12512512 78.07556702 49.25823059 78.06646301 48.36506653 78.05708313 C43.31487352 78.03934106 38.49021063 78.41922348 33.49201965 79.14717102 C34.40080872 79.0002179 34.40080872 79.0002179 35.32795715 78.85029602 C42.70900431 77.53306299 50.47994323 76.08394553 55.99201965 70.70967102 C58.70117812 66.0815253 60.13109431 62.57930563 59.49201965 57.14717102 C57.74500074 51.29641642 54.53752693 47.36669937 49.3162384 44.22529602 C39.90400131 40.63224286 29.60065969 41.83968791 22.49201965 49.14717102 Z " fill="#E50C21" transform="translate(32.50798034667969,15.852828979492188)"/>
<path d="M0 0 C4.4586922 2.70627089 7.62631175 5.94328103 9.64453125 10.78515625 C10.93887595 16.08810582 9.90726604 20.42265841 7.54296875 25.2421875 C2.10384738 31.39698273 -3.37568805 32.47695385 -11.2578125 33.53515625 C-13.81218524 33.79203451 -13.81218524 33.79203451 -15.83203125 34.9296875 C-14.70796875 34.76597656 -13.58390625 34.60226563 -12.42578125 34.43359375 C-7.71476679 33.84471694 -3.07288941 33.81739968 1.66796875 33.8671875 C4.47296875 33.8878125 7.27796875 33.9084375 10.16796875 33.9296875 C10.16796875 40.1996875 10.16796875 46.4696875 10.16796875 52.9296875 C9.17796875 53.2596875 8.18796875 53.5896875 7.16796875 53.9296875 C7.16796875 55.9096875 7.16796875 57.8896875 7.16796875 59.9296875 C9.14796875 60.9196875 11.12796875 61.9096875 13.16796875 62.9296875 C13.16796875 63.5896875 13.16796875 64.2496875 13.16796875 64.9296875 C10.85796875 64.5996875 8.54796875 64.2696875 6.16796875 63.9296875 C6.16796875 65.2496875 6.16796875 66.5696875 6.16796875 67.9296875 C11.74626891 68.05437849 11.74626891 68.05437849 17.16796875 66.9296875 C16.50796875 64.6196875 15.84796875 62.3096875 15.16796875 59.9296875 C13.51796875 59.5996875 11.86796875 59.2696875 10.16796875 58.9296875 C10.16796875 58.2696875 10.16796875 57.6096875 10.16796875 56.9296875 C12.14796875 56.9296875 14.12796875 56.9296875 16.16796875 56.9296875 C16.00531021 56.38129211 15.84265167 55.83289673 15.67506409 55.2678833 C15.10042667 52.61825375 15.04810755 50.23028291 15.05444336 47.51855469 C15.05451889 46.43773621 15.05459442 45.35691772 15.05467224 44.24334717 C15.05983353 43.08280823 15.06499481 41.92226929 15.0703125 40.7265625 C15.07172745 39.53363586 15.0731424 38.34070923 15.07460022 37.1116333 C15.08019837 33.30095921 15.09275056 29.49034384 15.10546875 25.6796875 C15.11048399 23.09635502 15.11504685 20.51302161 15.11914062 17.9296875 C15.1301672 11.59633413 15.14690351 5.26301501 15.16796875 -1.0703125 C19.66784437 -1.15798993 24.16749775 -1.21093259 28.66796875 -1.2578125 C30.570625 -1.29551758 30.570625 -1.29551758 32.51171875 -1.33398438 C42.18221862 -1.40953516 49.38222299 -0.56470322 56.625 6.296875 C62.73267649 12.76018835 62.69040414 18.76332385 62.50390625 27.28515625 C62.1996233 30.58627248 61.79475043 32.16043319 60.16796875 34.9296875 C59.79671875 36.755 59.79671875 36.755 59.41796875 38.6171875 C58.22982943 43.78851518 55.27294536 47.71160606 52.16796875 51.9296875 C53.10769531 52.11144531 53.10769531 52.11144531 54.06640625 52.296875 C54.88367188 52.46445313 55.7009375 52.63203125 56.54296875 52.8046875 C57.35507813 52.96710938 58.1671875 53.12953125 59.00390625 53.296875 C61.16796875 53.9296875 61.16796875 53.9296875 63.16796875 55.9296875 C63.55885456 59.64310268 62.8443384 61.6817213 61.16796875 64.9296875 C61.16796875 66.2496875 61.16796875 67.5696875 61.16796875 68.9296875 C60.88174499 72.36437258 60.60287755 74.36591683 58.48046875 77.1171875 C53.59532245 80.94608595 49.52517075 82.30533682 43.33984375 82.33374023 C42.68536255 82.34060349 42.03088135 82.34746674 41.35656738 82.35453796 C39.21014223 82.37272161 37.06445379 82.3689815 34.91796875 82.36328125 C33.41633875 82.36784666 31.91471084 82.37315331 30.41308594 82.37916565 C27.27269986 82.38807977 24.13256833 82.38569263 20.9921875 82.37573242 C16.97718738 82.36423599 12.9630659 82.38447218 8.94818115 82.41364956 C5.84939032 82.43203481 2.75080925 82.4317147 -0.34802246 82.42601204 C-1.8279341 82.42585915 -3.30786026 82.4318764 -4.78771973 82.44430351 C-6.86033596 82.45925974 -8.93133892 82.44850629 -11.00390625 82.43139648 C-12.18049805 82.43123032 -13.35708984 82.43106415 -14.56933594 82.43089294 C-21.21943593 81.40932458 -25.00047687 77.03842667 -28.83203125 71.9296875 C-31.30646658 68.20950197 -31.062947 64.48964372 -30.95703125 60.1796875 C-30.94800781 59.48230469 -30.93898437 58.78492188 -30.9296875 58.06640625 C-30.90623013 56.35401792 -30.87036229 54.64180746 -30.83203125 52.9296875 C-29.34703125 52.4346875 -29.34703125 52.4346875 -27.83203125 51.9296875 C-28.32703125 51.0840625 -28.82203125 50.2384375 -29.33203125 49.3671875 C-31.03307312 45.46896654 -31.28331022 43.14162457 -30.83203125 38.9296875 C-27.5302083 30.67513012 -22.69369349 26.60360155 -14.83203125 22.9296875 C-13.33763875 22.41316929 -11.83788315 21.91177678 -10.33203125 21.4296875 C-6.63632878 20.33205034 -6.63632878 20.33205034 -5.76953125 17.3046875 C-5.55823846 14.97406015 -5.55823846 14.97406015 -6.83203125 13.9296875 C-10.24774978 13.42937544 -10.24774978 13.42937544 -13.83203125 13.9296875 C-15.84067484 16.3023849 -15.84067484 16.3023849 -16.83203125 18.9296875 C-17.49203125 18.6615625 -18.15203125 18.3934375 -18.83203125 18.1171875 C-22.48142192 16.67263703 -26.15448558 15.30097572 -29.83203125 13.9296875 C-29.37657066 9.03348619 -28.32100172 6.41865797 -24.83203125 2.9296875 C-17.99984631 -2.68788678 -8.178341 -3.09084887 0 0 Z " fill="#A60A1C" transform="translate(81.83203125,60.0703125)"/>
<path d="M0 0 C1.71795273 -0.01073296 1.71795273 -0.01073296 3.47061157 -0.02168274 C4.72830856 -0.02437164 5.98600555 -0.02706055 7.28181458 -0.02983093 C8.61901526 -0.03609714 9.95621421 -0.04274409 11.29341125 -0.04974365 C15.68642467 -0.07077123 20.07943837 -0.08114618 24.4724884 -0.09111023 C25.98635183 -0.09515855 27.50021508 -0.0992755 29.01407814 -0.10346031 C36.12824391 -0.1225107 43.24239932 -0.13674092 50.35658568 -0.14507228 C58.56000099 -0.15483851 66.76314602 -0.1811424 74.96646613 -0.22157317 C81.31224899 -0.25177191 87.65795454 -0.26654479 94.00380784 -0.26985329 C97.79133844 -0.2721999 101.57858025 -0.28110888 105.36603355 -0.30631447 C108.93250946 -0.32966576 112.49850793 -0.33380052 116.06504059 -0.32355309 C117.98866374 -0.32282489 119.91226302 -0.3418674 121.83578491 -0.36161804 C129.39093116 -0.3163692 135.13229352 0.28364059 141.00545025 5.48835278 C147.47863694 12.48330849 146.78092059 21.04059319 146.75080872 29.96382141 C146.75606567 31.88210503 146.75606567 31.88210503 146.76142883 33.83914185 C146.77050977 37.33079331 146.76702666 40.82232597 146.76067066 44.31397939 C146.75558943 47.97602602 146.7603079 51.63806281 146.76344299 55.30010986 C146.767076 61.4474723 146.76230054 67.5947866 146.75276184 73.74214172 C146.74187371 80.8409689 146.74540812 87.93968121 146.75641465 95.03850561 C146.76550072 101.14400782 146.7667665 107.24947553 146.76153731 113.35498232 C146.75842549 116.99696926 146.75798667 120.63890226 146.76461029 124.2808857 C146.77147875 128.34063102 146.76194948 132.40017933 146.75080872 136.45991516 C146.75485718 137.66164368 146.75890564 138.86337219 146.76307678 140.10151672 C146.75743713 141.21031693 146.75179749 142.31911713 146.74598694 143.46151733 C146.74485586 144.89970369 146.74485586 144.89970369 146.74370193 146.36694431 C146.22363937 152.11185347 144.0858109 156.67921434 140.49201965 161.14717102 C135.22057547 165.01781185 130.43895095 166.26784775 124.01564026 166.28761292 C122.90262039 166.29332306 121.78960052 166.2990332 120.64285278 166.30491638 C119.42615402 166.30603424 118.20945526 166.3071521 116.95588684 166.30830383 C115.67092819 166.31326874 114.38596954 166.31823364 113.06207275 166.323349 C109.53915805 166.33645072 106.01626239 166.34291375 102.49332714 166.34735966 C100.29015282 166.35029434 98.08698366 166.35439993 95.88381195 166.35886383 C88.98428871 166.3725337 82.08477731 166.38220251 75.18524146 166.38606572 C67.23261544 166.39054356 59.28016154 166.40808075 51.32758784 166.43706632 C45.17286478 166.45871685 39.01819003 166.46877182 32.86342931 166.47010684 C29.19110442 166.47115258 25.51894144 166.47701071 21.8466568 166.49492645 C17.74624267 166.51454205 13.64618654 166.51010478 9.54573059 166.50361633 C8.33712875 166.51283112 7.12852692 166.5220459 5.88330078 166.53153992 C-1.39576705 166.49548346 -7.37212564 165.99755737 -13.53141785 161.75263977 C-14.20044128 161.05074524 -14.20044128 161.05074524 -14.88298035 160.33467102 C-15.34446472 159.87447571 -15.8059491 159.4142804 -16.28141785 158.94013977 C-19.14617139 154.75249049 -19.75865823 150.24704487 -19.77540588 145.27842712 C-19.78393585 144.12900131 -19.79246582 142.9795755 -19.80125427 141.7953186 C-19.79989471 139.92495186 -19.79989471 139.92495186 -19.79850769 138.01679993 C-19.80449761 136.67915473 -19.81130422 135.34151298 -19.81886292 134.00387573 C-19.83648213 130.38188995 -19.84121654 126.75999876 -19.84249449 123.13797426 C-19.84391885 120.87213319 -19.84819382 118.60631595 -19.85348892 116.3404808 C-19.87197503 108.42739594 -19.88016123 100.51437833 -19.87858582 92.60127258 C-19.87738449 85.23828553 -19.89848853 77.87559163 -19.93007314 70.51267874 C-19.95626707 64.17956248 -19.96695182 57.84654181 -19.965675 51.51337183 C-19.96516632 47.73596334 -19.97079719 43.9588156 -19.9920311 40.18146133 C-20.01146663 36.62723432 -20.01150231 33.07351541 -19.99699783 29.51926994 C-19.99392678 27.6028483 -20.01054859 25.68642632 -20.02787781 23.77008057 C-19.97208403 16.08791989 -19.33953493 10.02816501 -13.6915741 4.30732727 C-13.11536316 3.94510071 -12.53915222 3.58287415 -11.94548035 3.20967102 C-11.07729675 2.63926086 -11.07729675 2.63926086 -10.1915741 2.05732727 C-6.7283671 0.18510632 -3.85849011 0.01653666 0 0 Z M-11.50798035 9.14717102 C-12.81059418 11.75239868 -12.64574633 13.66766569 -12.66188049 16.58631897 C-12.67048096 17.7415506 -12.67908142 18.89678223 -12.6879425 20.08702087 C-12.69220245 21.36080597 -12.6964624 22.63459106 -12.70085144 23.94697571 C-12.70875198 25.29712638 -12.7170209 26.64727494 -12.72563171 27.99742126 C-12.75185978 32.43794231 -12.7671612 36.87847282 -12.78141785 41.31904602 C-12.78677741 42.84750118 -12.79215492 44.37595628 -12.7975502 45.90441132 C-12.81918105 52.26275185 -12.8379174 58.62108983 -12.84917259 64.97945786 C-12.86540907 74.09210355 -12.89857666 83.20432264 -12.95557344 92.31680751 C-12.9942806 98.72368271 -13.01380623 105.13044385 -13.01909316 111.53743291 C-13.02274593 115.36411039 -13.03475813 119.19033296 -13.06719589 123.01688385 C-13.09729041 126.61870368 -13.10358409 130.21979373 -13.09181213 133.82171249 C-13.0914865 135.76961348 -13.1159438 137.7174695 -13.14118958 139.66520691 C-13.23200961 146.77975856 -13.23200961 146.77975856 -10.09651184 152.91700745 C-6.45206231 156.05690302 -4.78463503 156.27434678 -0.06210327 156.29434204 C1.09457352 156.30149734 2.25125031 156.30865265 3.44297791 156.31602478 C4.71833405 156.31871368 5.99369019 156.32140259 7.30769348 156.32417297 C8.6594663 156.33043695 10.01123739 156.33708369 11.36300659 156.34408569 C15.04078654 156.36150134 18.71855348 156.37204896 22.39636445 156.38029122 C24.69364476 156.38544015 26.99092102 156.39151593 29.28819847 156.39780235 C36.47444286 156.41685595 43.66067697 156.43108677 50.84694177 156.43941432 C59.14491639 156.44918863 67.44262438 156.47551227 75.74050504 156.51591522 C82.15246236 156.54606512 88.5643432 156.56088211 94.97637004 156.56419533 C98.80685446 156.56654711 102.6370541 156.5755236 106.46746254 156.60065651 C110.07167028 156.62392294 113.67540546 156.6281766 117.27966881 156.61789513 C119.23131222 156.61716305 121.18293155 156.63626441 123.13447571 156.65596008 C124.29961197 156.64901627 125.46474823 156.64207245 126.66519165 156.63491821 C127.6756445 156.63730657 128.68609735 156.63969492 129.72716999 156.64215565 C133.26835735 156.00818508 134.91255509 154.60819747 137.49201965 152.14717102 C139.75507676 148.75258537 139.74778547 147.57000689 139.76617432 143.58776855 C139.78113701 141.85285912 139.78113701 141.85285912 139.79640198 140.082901 C139.79706665 138.81271118 139.79773132 137.54252136 139.79841614 136.23384094 C139.80603714 134.88354025 139.81446454 133.53324391 139.82363892 132.18295288 C139.84559883 128.51341486 139.85438497 124.84396017 139.85946536 121.17436385 C139.86310767 118.88125033 139.86934711 116.58815867 139.87646675 114.29505348 C139.90096801 106.29351975 139.91401426 98.29205089 139.91755676 90.29048157 C139.92119093 82.83487041 139.95107564 75.3796712 139.99296135 67.92418593 C140.02766958 61.52152255 140.0431053 55.11899562 140.0438028 48.7162388 C140.04459555 44.89295128 140.05333227 41.07008316 140.08180046 37.24689293 C140.1079903 33.64913571 140.11018214 30.05214526 140.09414482 26.45433617 C140.09146768 24.50885069 140.11350875 22.56338011 140.13633728 20.61802673 C140.21661504 13.50945324 140.21661504 13.50945324 137.07955933 7.37832642 C133.43984354 4.23991211 131.77056753 4.01935006 127.0528717 3.99327087 C125.32002426 3.98037018 125.32002426 3.98037018 123.5521698 3.96720886 C122.2783847 3.96294891 121.00459961 3.95868896 119.69221497 3.95429993 C118.3420643 3.94639938 116.99191574 3.93813046 115.64176941 3.92951965 C111.20124836 3.90329158 106.76071785 3.88799017 102.32014465 3.87373352 C100.79168949 3.86837396 99.26323439 3.86299645 97.73477936 3.85760117 C91.37643883 3.83597032 85.01810084 3.81723396 78.65973282 3.80597878 C69.54708713 3.7897423 60.43486803 3.7565747 51.32238317 3.69957793 C44.91550797 3.66087077 38.50874682 3.64134513 32.10175776 3.63605821 C28.27508029 3.63240544 24.44885771 3.62039324 20.62230682 3.58795547 C17.020487 3.55786096 13.41939694 3.55156728 9.81747818 3.56333923 C7.8695772 3.56366487 5.92172117 3.53920757 3.97398376 3.51396179 C-2.95205239 3.5633519 -6.87443416 3.7690542 -11.50798035 9.14717102 Z " fill="#000000" transform="translate(32.50798034667969,15.852828979492188)"/>
<path d="M0 0 C4.455 -0.061875 8.91 -0.12375 13.5 -0.1875 C14.88896484 -0.21481201 16.27792969 -0.24212402 17.70898438 -0.27026367 C27.24353068 -0.33422161 34.32738411 0.61278495 41.45703125 7.3671875 C46.96810209 13.19915614 47.61368457 18.25471674 47.54321289 26.07885742 C47.23213156 33.00587111 45.24073141 36.71685064 40.5078125 41.51171875 C35.22637824 46.28690154 30.710333 47.25275994 23.73046875 47.1953125 C22.48418701 47.19031738 21.23790527 47.18532227 19.95385742 47.18017578 C17.5945105 47.15286377 17.5945105 47.15286377 15.1875 47.125 C7.6696875 47.063125 7.6696875 47.063125 0 47 C0 31.49 0 15.98 0 0 Z " fill="#E4E2DF" transform="translate(97,59)"/>
<path d="M0 0 C4.4586922 2.70627089 7.62631175 5.94328103 9.64453125 10.78515625 C10.93887595 16.08810582 9.90726604 20.42265841 7.54296875 25.2421875 C2.10384738 31.39698273 -3.37568805 32.47695385 -11.2578125 33.53515625 C-13.81218524 33.79203451 -13.81218524 33.79203451 -15.83203125 34.9296875 C-14.70796875 34.76597656 -13.58390625 34.60226563 -12.42578125 34.43359375 C-7.71482649 33.8447244 -3.07329284 33.81699499 1.66796875 33.8671875 C2.49039063 33.87169922 3.3128125 33.87621094 4.16015625 33.88085938 C6.16279271 33.89250261 8.16539102 33.91043194 10.16796875 33.9296875 C10.16796875 37.8896875 10.16796875 41.8496875 10.16796875 45.9296875 C-3.36203125 45.9296875 -16.89203125 45.9296875 -30.83203125 45.9296875 C-30.83203125 38.02966127 -29.32349822 33.56566676 -23.83203125 27.9296875 C-19.56193723 25.08577112 -15.21094761 22.99164274 -10.33203125 21.4296875 C-6.63632878 20.33205034 -6.63632878 20.33205034 -5.76953125 17.3046875 C-5.55823846 14.97406015 -5.55823846 14.97406015 -6.83203125 13.9296875 C-10.24774978 13.42937544 -10.24774978 13.42937544 -13.83203125 13.9296875 C-15.84067484 16.3023849 -15.84067484 16.3023849 -16.83203125 18.9296875 C-17.49203125 18.6615625 -18.15203125 18.3934375 -18.83203125 18.1171875 C-22.48142192 16.67263703 -26.15448558 15.30097572 -29.83203125 13.9296875 C-29.37657066 9.03348619 -28.32100172 6.41865797 -24.83203125 2.9296875 C-17.99984631 -2.68788678 -8.178341 -3.09084887 0 0 Z " fill="#E4DEDC" transform="translate(81.83203125,60.0703125)"/>
<path d="M0 0 C13.2 0 26.4 0 40 0 C40 2.31 40 4.62 40 7 C39.01 7.33 38.02 7.66 37 8 C37 9.98 37 11.96 37 14 C38.98 14.99 40.96 15.98 43 17 C43 17.66 43 18.32 43 19 C40.69 18.67 38.38 18.34 36 18 C36 18.99 36 19.98 36 21 C33 23 33 23 29 23 C29 22.34 29 21.68 29 21 C26.69 21 24.38 21 22 21 C22 21.66 22 22.32 22 23 C18.7 23 15.4 23 12 23 C12 20.36 12 17.72 12 15 C11.34 15 10.68 15 10 15 C9.67 15.99 9.34 16.98 9 18 C7.68 17.67 6.36 17.34 5 17 C5 16.34 5 15.68 5 15 C4.34 15 3.68 15 3 15 C3 17.64 3 20.28 3 23 C1.68 22.67 0.36 22.34 -1 22 C-1 17.05 -1 12.1 -1 7 C-0.01 6.67 0.98 6.34 2 6 C1.34 5.01 0.68 4.02 0 3 C0 2.01 0 1.02 0 0 Z " fill="#A81828" transform="translate(52,106)"/>
<path d="M0 0 C0.83595703 0.00451172 1.67191406 0.00902344 2.53320312 0.01367188 C4.58466649 0.02539452 6.63609273 0.04332797 8.6875 0.0625 C8.6875 4.0225 8.6875 7.9825 8.6875 12.0625 C-4.8425 12.0625 -18.3725 12.0625 -32.3125 12.0625 C-32.3125 5.0625 -32.3125 5.0625 -31.3125 2.0625 C-30.14332031 2.00191406 -28.97414062 1.94132812 -27.76953125 1.87890625 C-26.22134386 1.79445966 -24.67316732 1.70981375 -23.125 1.625 C-22.35607422 1.58568359 -21.58714844 1.54636719 -20.79492188 1.50585938 C-16.28965683 1.25504479 -16.28965683 1.25504479 -11.84375 0.53125 C-7.90959687 -0.19729688 -3.99075668 -0.04094699 0 0 Z " fill="#FBF9F4" transform="translate(83.3125,93.9375)"/>
<path d="M0 0 C14.19 0 28.38 0 43 0 C40.69177548 4.61644905 38.38588611 6.80903049 33.78637695 9.10498047 C30.31775904 10.21914443 27.37253849 10.22528838 23.73046875 10.1953125 C23.04946609 10.1924826 22.36846344 10.18965271 21.66682434 10.18673706 C19.50686545 10.17560525 17.34733206 10.15051457 15.1875 10.125 C13.71680289 10.11496111 12.24609924 10.10583685 10.77539062 10.09765625 C7.18345714 10.07568913 3.59177015 10.0412082 0 10 C0 6.7 0 3.4 0 0 Z " fill="#FEFDF9" transform="translate(97,96)"/>
<path d="M0 0 C3.22899426 -0.0875127 6.45768116 -0.14056146 9.6875 -0.1875 C11.05551758 -0.22520508 11.05551758 -0.22520508 12.45117188 -0.26367188 C18.65040456 -0.33129987 22.22651379 0.32215125 26.8125 4.75 C28.54568109 8.03392206 28.44932633 10.34119985 28 14 C25.57374064 18.0437656 23.42486088 19.5822644 19 21 C15.30979892 21.24900142 11.7047205 21.08927037 8 21 C8 14.73 8 8.46 8 2 C5.36 2 2.72 2 0 2 C0 1.34 0 0.68 0 0 Z " fill="#981524" transform="translate(102,73)"/>
<path d="M0 0 C3.5 0.25 3.5 0.25 5.5 2.25 C5.17028521 5.54714793 4.8773161 6.8726839 2.5 9.25 C0.026913 10.07292616 -2.47080302 10.71252318 -4.9921875 11.37109375 C-7.62540228 12.2939494 -9.31392415 13.55129604 -11.5 15.25 C-12.16 15.25 -12.82 15.25 -13.5 15.25 C-14.50484204 13.29414675 -15.50373805 11.33523763 -16.5 9.375 C-17.056875 8.28445312 -17.61375 7.19390625 -18.1875 6.0703125 C-19.5 3.25 -19.5 3.25 -19.5 1.25 C-14.21862571 1.76525603 -10.92778844 3.50477117 -6.5 6.25 C-6.37625 5.63125 -6.2525 5.0125 -6.125 4.375 C-5.013316 0.59527439 -3.8878974 0.27770696 0 0 Z " fill="#971221" transform="translate(71.5,72.75)"/>
<path d="M0 0 C4.92129494 0.98425899 6.40538913 1.8162018 10 5 C10.226875 4.360625 10.45375 3.72125 10.6875 3.0625 C11.3371875 2.0415625 11.3371875 2.0415625 12 1 C13.65 0.67 15.3 0.34 17 0 C17 4.95 17 9.9 17 15 C15.68 15.33 14.36 15.66 13 16 C13 13.36 13 10.72 13 8 C12.34 8 11.68 8 11 8 C10.67 8.99 10.34 9.98 10 11 C8.68 10.67 7.36 10.34 6 10 C6 9.34 6 8.68 6 8 C5.34 8 4.68 8 4 8 C4 10.64 4 13.28 4 16 C2.68 15.67 1.36 15.34 0 15 C0 10.05 0 5.1 0 0 Z " fill="#F7EBEA" transform="translate(51,113)"/>
<path d="M0 0 C8.21766784 -0.36254417 8.21766784 -0.36254417 11.5625 1.1875 C13 3 13 3 13.375 5.4375 C12.99452495 8.03741283 12.16112729 9.67774541 11 12 C11.33 12.99 11.66 13.98 12 15 C8.62537285 14.45276317 6.91765 13.9451 4 12 C3.67 13.32 3.34 14.64 3 16 C2.01 16 1.02 16 0 16 C0 10.72 0 5.44 0 0 Z " fill="#F2D9DA" transform="translate(132,113)"/>
<path d="M0 0 C3.96 0 7.92 0 12 0 C12 1.32 12 2.64 12 4 C9.36 4 6.72 4 4 4 C4 4.66 4 5.32 4 6 C6.31 6 8.62 6 11 6 C11 6.99 11 7.98 11 9 C8.69 9 6.38 9 4 9 C4 9.99 4 10.98 4 12 C6.64 12 9.28 12 12 12 C12 13.32 12 14.64 12 16 C8.04 16 4.08 16 0 16 C0 10.72 0 5.44 0 0 Z " fill="#F6E9E6" transform="translate(117,113)"/>
<path d="M0 0 C1.828125 0.16796875 1.828125 0.16796875 4 1 C5.484375 3.36328125 5.484375 3.36328125 6.75 6.3125 C7.39195313 7.76076172 7.39195313 7.76076172 8.046875 9.23828125 C9 12 9 12 9 16 C7.68 16 6.36 16 5 16 C5 15.34 5 14.68 5 14 C2.69 14 0.38 14 -2 14 C-2 14.66 -2 15.32 -2 16 C-3.32 15.67 -4.64 15.34 -6 15 C-5.38062492 13.06069452 -4.75429312 11.12360987 -4.125 9.1875 C-3.77695313 8.10855469 -3.42890625 7.02960938 -3.0703125 5.91796875 C-2 3 -2 3 0 0 Z " fill="#F4E2E1" transform="translate(76,113)"/>
<path d="M0 0 C1.23556641 0.01740234 1.23556641 0.01740234 2.49609375 0.03515625 C3.32238281 0.04417969 4.14867188 0.05320312 5 0.0625 C5.63808594 0.07410156 6.27617188 0.08570312 6.93359375 0.09765625 C6.93359375 1.41765625 6.93359375 2.73765625 6.93359375 4.09765625 C4.95359375 4.09765625 2.97359375 4.09765625 0.93359375 4.09765625 C0.93359375 4.75765625 0.93359375 5.41765625 0.93359375 6.09765625 C1.71734375 6.05640625 2.50109375 6.01515625 3.30859375 5.97265625 C5.93359375 6.09765625 5.93359375 6.09765625 7.93359375 8.09765625 C8.05859375 11.22265625 8.05859375 11.22265625 7.93359375 14.09765625 C5.01650451 16.08127694 3.80978471 16.08527535 0.18359375 15.72265625 C-0.88890625 15.51640625 -1.96140625 15.31015625 -3.06640625 15.09765625 C-3.06640625 13.77765625 -3.06640625 12.45765625 -3.06640625 11.09765625 C-0.75640625 11.42765625 1.55359375 11.75765625 3.93359375 12.09765625 C3.93359375 11.43765625 3.93359375 10.77765625 3.93359375 10.09765625 C2.96421875 9.78828125 1.99484375 9.47890625 0.99609375 9.16015625 C-2.06640625 8.09765625 -2.06640625 8.09765625 -3.06640625 7.09765625 C-3.19140625 4.09765625 -3.19140625 4.09765625 -3.06640625 1.09765625 C-2.06640625 0.09765625 -2.06640625 0.09765625 0 0 Z " fill="#F5E7E6" transform="translate(91.06640625,112.90234375)"/>
<path d="M0 0 C3.96 0 7.92 0 12 0 C12 1.32 12 2.64 12 4 C10.68 4 9.36 4 8 4 C8 7.63 8 11.26 8 15 C6.68 15.33 5.36 15.66 4 16 C4 12.04 4 8.08 4 4 C2.68 4 1.36 4 0 4 C0 2.68 0 1.36 0 0 Z " fill="#F5E5E4" transform="translate(102,113)"/>
<path d="M0 0 C0.33 0 0.66 0 1 0 C1 4.95 1 9.9 1 15 C0.01 14.34 -0.98 13.68 -2 13 C-4.0492094 12.54860541 -4.0492094 12.54860541 -6.1875 12.375 C-7.445625 12.25125 -8.70375 12.1275 -10 12 C-10 11.01 -10 10.02 -10 9 C-7.69 9 -5.38 9 -3 9 C-3 8.01 -3 7.02 -3 6 C-5.31 6 -7.62 6 -10 6 C-10 5.34 -10 4.68 -10 4 C-5.545 3.505 -5.545 3.505 -1 3 C-0.67 2.01 -0.34 1.02 0 0 Z " fill="#AD2536" transform="translate(131,113)"/>
<path d="M0 0 C1.32 0 2.64 0 4 0 C4.33 5.61 4.66 11.22 5 17 C3.35 17 1.7 17 0 17 C0 11.39 0 5.78 0 0 Z " fill="#FB0A23" transform="translate(92,96)"/>
<path d="M0 0 C1.70363822 0.22622081 3.41328701 0.40888473 5.125 0.5625 C6.03507812 0.64628906 6.94515625 0.73007813 7.8828125 0.81640625 C8.58148438 0.87699219 9.28015625 0.93757813 10 1 C10 1.33 10 1.66 10 2 C8.80503906 2.06058594 7.61007813 2.12117188 6.37890625 2.18359375 C-5.33528961 2.79215577 -5.33528961 2.79215577 -17 4 C-14.41841134 0.72578999 -11.96771771 0.357226 -7.9375 -0.25 C-6.34228516 -0.50523438 -6.34228516 -0.50523438 -4.71484375 -0.765625 C-2 -1 -2 -1 0 0 Z " fill="#AC3744" transform="translate(82,92)"/>
<path d="M0 0 C0.98120464 3.05263664 0.98120464 4.94736336 0 8 C-2.64 8 -5.28 8 -8 8 C-6.6636586 3.99097581 -4.50572968 3.19108105 -1 1 C-0.67 0.67 -0.34 0.34 0 0 Z " fill="#9A111F" transform="translate(89,85)"/>
<path d="M0 0 C1.3921875 0.0928125 1.3921875 0.0928125 2.8125 0.1875 C2.8125 0.8475 2.8125 1.5075 2.8125 2.1875 C-1.6425 2.6825 -1.6425 2.6825 -6.1875 3.1875 C-3.1875 0.1875 -3.1875 0.1875 0 0 Z " fill="#AC4453" transform="translate(71.1875,92.8125)"/>
</svg>
